<svg fill="none" height="816" viewBox="0 0 760 816" width="760" xmlns="http://www.w3.org/2000/svg" xmlns:xlink="http://www.w3.org/1999/xlink"><clipPath id="a"><path d="m608 716h58v58h-58z"/></clipPath><clipPath id="b"><path d="m53 113h654v561h-654z"/></clipPath><clipPath id="c"><path d="m106 431h575v167h-575z"/></clipPath><clipPath id="d"><path d="m608 486h58v58h-58z"/></clipPath><clipPath id="e"><path d="m608 365h58v58h-58z"/></clipPath><clipPath id="f"><path d="m106 190h575v167h-575z"/></clipPath><clipPath id="g"><path d="m608 245h58v58h-58z"/></clipPath><clipPath id="h"><path d="m608 26h58v58h-58z"/></clipPath><path d="m0 0h760v816h-760z" fill="#fff"/><path d="m407.472 736.258v-.482h-93.508l46.584 26.992z" fill="#be8b2c"/><path d="m406.508 735.303v.473h-93.508l46.588-26.992z" fill="#ffc761"/><path d="m334.278 703h53.853c3.762.005 6.809 3.059 6.809 6.824v58.728h-67.48v-58.728c0-3.769 3.052-6.824 6.818-6.824z" fill="#fff"/><path clip-rule="evenodd" d="m334.278 703h53.853c3.762.005 6.809 3.059 6.809 6.824v58.728h-67.48v-58.728c0-3.769 3.052-6.824 6.818-6.824z" fill-rule="evenodd" stroke="#353537" stroke-width="2.7956"/><path d="m313.334 735.776h-.334l.213 53.02 47.023-25.902z" fill="#ffd687"/><path d="m407.472 736.74-47.236 26.698 45.911 26.322 1.149-.632z" fill="#ffd687"/><path d="m315.892 788.742.549 1.018h89.103l-45.169-26.992-26.452 15.028z" fill="#fdb836"/><g stroke="#353537" stroke-width="2.7956"><path d="m313.964 735.776 91.58 53.02"/><path d="m314.928 789.76 91.58-53.02"/><path d="m396.868 789.76h5.466c1.066.005 2.09-.425 2.846-1.195.757-.77 1.183-1.816 1.185-2.909l.143-47.754c.009-1.47-.749-2.833-1.989-3.573l-7.134-5.301"/><path d="m324.274 729.028-8.122 5.452c-1.243.739-2.009 2.084-2.015 3.539l-.173 47.632c0 1.091.431 2.138 1.197 2.909s1.805 1.202 2.887 1.2h57.612"/><path d="m337.1 719.87h48.2"/><path d="m337.1 731.438h48.2"/><path d="m337.1 743.006h48.2"/></g><g clip-path="url(#a)"><path d="m637.024 772c14.899 0 26.976-12.078 26.976-26.976 0-14.899-12.077-26.976-26.976-26.976-14.898 0-26.976 12.077-26.976 26.976 0 14.898 12.078 26.976 26.976 26.976z" fill="#f2f2f2"/><g stroke="#424143" stroke-width="2.364"><path d="m649.754 721.236c.517.269 1.011.561 1.505.864"/><path d="m658.039 728.106c.326.404.64.82.943 1.235 7.679 10.77 6.405 25.521-3.008 34.814s-24.179 10.379-34.85 2.563c-10.671-7.817-14.089-22.223-8.067-34 6.021-11.777 19.701-17.442 32.286-13.368.74.247 1.47.516 2.177.819"/><path d="m653.74 723.851c.434.352.86.726 1.279 1.123.371.326.73.674 1.123 1.022"/></g><path d="m637.904 740.84h-2.28l.28-3.84h10.2v-6h-16.2l-1.16 16.08h8.76c2.44 0 3.6 1.4 3.6 3.12s-1.16 3.12-3.8 3.12-3.84-1.12-4.48-2.96l-5.52 3.2c1.72 4.12 5.56 6 10 6 5.4 0 10.2-3.2 10.2-9.36s-4.4-9.36-9.6-9.36z" fill="#000"/></g><path d="m81.617 752.722c2.3767 0 4.3193-.94 5.828-2.821l3.1 3.193c-2.4593 2.769-5.363 4.154-8.711 4.154-3.3273 0-6.076-1.054-8.246-3.162-2.1493-2.108-3.224-4.764-3.224-7.967 0-3.224 1.0953-5.911 3.286-8.06 2.2113-2.149 4.9083-3.224 8.091-3.224 3.5547 0 6.5307 1.354 8.928 4.061l-3.007 3.41c-1.5293-1.901-3.4307-2.852-5.704-2.852-1.8187 0-3.379.599-4.681 1.798-1.2813 1.178-1.922 2.78-1.922 4.805 0 2.005.6097 3.617 1.829 4.836s2.697 1.829 4.433 1.829zm28.885-6.665c0-1.943-.62-3.596-1.86-4.96s-2.769-2.046-4.588-2.046c-1.798 0-3.317.682-4.557 2.046s-1.86 3.017-1.86 4.96c0 1.922.62 3.565 1.86 4.929 1.24 1.343 2.759 2.015 4.557 2.015 1.819 0 3.348-.672 4.588-2.015 1.24-1.364 1.86-3.007 1.86-4.929zm1.643 7.967c-2.191 2.129-4.888 3.193-8.091 3.193s-5.9004-1.064-8.091-3.193c-2.1907-2.149-3.286-4.815-3.286-7.998s1.0953-5.838 3.286-7.967c2.1906-2.149 4.888-3.224 8.091-3.224s5.9 1.075 8.091 3.224c2.191 2.129 3.286 4.784 3.286 7.967s-1.095 5.849-3.286 7.998zm22.542-18.693h4.836v21.669h-4.836l-10.323-13.578v13.578h-4.836v-21.669h4.526l10.633 13.95zm17.155 3.751c-.806 0-1.446.196-1.922.589-.454.372-.682.878-.682 1.519 0 .62.279 1.116.837 1.488.579.372 1.891.816 3.937 1.333 2.067.496 3.669 1.25 4.805 2.263 1.137 1.013 1.705 2.49 1.705 4.433s-.733 3.524-2.201 4.743c-1.446 1.199-3.358 1.798-5.735 1.798-3.43 0-6.52-1.271-9.269-3.813l2.883-3.534c2.336 2.046 4.495 3.069 6.479 3.069.889 0 1.581-.186 2.077-.558.517-.393.775-.909.775-1.55 0-.661-.268-1.178-.806-1.55-.537-.393-1.601-.785-3.193-1.178-2.521-.599-4.371-1.374-5.549-2.325-1.157-.971-1.736-2.48-1.736-4.526 0-2.067.734-3.658 2.201-4.774 1.488-1.116 3.338-1.674 5.549-1.674 1.447 0 2.894.248 4.34.744 1.447.496 2.708 1.199 3.782 2.108l-2.449 3.534c-1.88-1.426-3.823-2.139-5.828-2.139zm18.529 12.338c.806.992 1.891 1.488 3.255 1.488s2.438-.496 3.224-1.488c.806-1.013 1.209-2.387 1.209-4.123v-11.966h4.836v12.121c0 3.141-.868 5.559-2.604 7.254-1.736 1.674-3.958 2.511-6.665 2.511-2.708 0-4.94-.847-6.696-2.542-1.736-1.695-2.604-4.102-2.604-7.223v-12.121h4.836v11.966c0 1.736.403 3.11 1.209 4.123zm36.951-8.06-5.859 11.842h-2.883l-5.828-11.842v13.64h-4.836v-21.669h6.541l5.58 11.904 5.611-11.904h6.51v21.669h-4.836zm25.795-8.029v4.309h-10.788v4.464h9.703v4.123h-9.703v4.495h11.129v4.278h-15.965v-21.669zm22.236 7.192c0 3.472-1.374 5.714-4.123 6.727l5.487 7.75h-5.952l-4.805-6.913h-3.348v6.913h-4.836v-21.669h8.215c3.369 0 5.766.568 7.192 1.705 1.447 1.137 2.17 2.966 2.17 5.487zm-9.207 3.379c1.654 0 2.78-.269 3.379-.806.6-.537.899-1.385.899-2.542 0-1.178-.31-1.984-.93-2.418s-1.705-.651-3.255-.651h-3.627v6.417z" fill="#353537"/><g clip-path="url(#b)"><rect fill="#dee7ee" height="557" rx="16" stroke="#353537" stroke-width="4" width="650" x="55" y="115"/><path d="m126.356 649.6h4.644l-4.023-6.939c2.079-1.053 3.483-3.159 3.483-5.481 0-3.591-2.889-6.48-6.48-6.48h-7.56v18.9h4.32v-6.21h2.052zm-5.616-14.85h3.24c1.188 0 2.16 1.053 2.16 2.43s-.972 2.43-2.16 2.43h-3.24zm21.272 1.35v1.269c-.891-1.026-2.214-1.647-4.023-1.647-3.537 0-6.453 3.105-6.453 7.128s2.916 7.128 6.453 7.128c1.809 0 3.132-.621 4.023-1.647v1.269h4.05v-13.5zm-3.213 10.044c-1.863 0-3.213-1.269-3.213-3.294s1.35-3.294 3.213-3.294 3.213 1.269 3.213 3.294-1.35 3.294-3.213 3.294zm18.307-10.422c-1.809 0-3.132.621-4.023 1.647v-6.669h-4.05v18.9h4.05v-1.269c.891 1.026 2.214 1.647 4.023 1.647 3.537 0 6.453-3.105 6.453-7.128s-2.916-7.128-6.453-7.128zm-.81 10.422c-1.863 0-3.213-1.269-3.213-3.294s1.35-3.294 3.213-3.294 3.213 1.269 3.213 3.294-1.35 3.294-3.213 3.294zm17.632-10.422c-1.809 0-3.132.621-4.023 1.647v-6.669h-4.05v18.9h4.05v-1.269c.891 1.026 2.214 1.647 4.023 1.647 3.537 0 6.453-3.105 6.453-7.128s-2.916-7.128-6.453-7.128zm-.81 10.422c-1.863 0-3.213-1.269-3.213-3.294s1.35-3.294 3.213-3.294 3.213 1.269 3.213 3.294-1.35 3.294-3.213 3.294zm11.585-11.232c1.323 0 2.43-1.107 2.43-2.43s-1.107-2.43-2.43-2.43-2.43 1.107-2.43 2.43 1.107 2.43 2.43 2.43zm-2.025 14.688h4.05v-13.5h-4.05zm14.924-9.612v-3.888h-2.781v-3.78l-4.05 1.215v2.565h-2.16v3.888h2.16v4.779c0 3.78 1.539 5.373 6.831 4.833v-3.672c-1.782.108-2.781 0-2.781-1.161v-4.779zm21.592-9.288h-4.32l-5.13 8.397-5.13-8.397h-4.32v18.9h4.32v-10.989l4.887 8.019h.486l4.887-8.019v10.989h4.32zm22.095 9.45c0-5.562-4.401-9.828-9.828-9.828s-9.828 4.266-9.828 9.828 4.401 9.828 9.828 9.828c1.593 0 3.105-.378 4.428-1.026l2.025 2.133 3.105-2.754-1.89-1.998c1.35-1.674 2.16-3.807 2.16-6.183zm-9.828 5.616c-3.078 0-5.508-2.241-5.508-5.616s2.43-5.616 5.508-5.616 5.508 2.241 5.508 5.616c0 1.161-.297 2.187-.783 3.051l-3.024-3.213-3.105 2.754 2.727 2.889c-.432.081-.864.135-1.323.135z" fill="#030303"/><path clip-rule="evenodd" d="m79.2559 625.456v26.586c.023.046.0394.095.0487.146.0823.482.4711.854.9567.914h.2864 24.7203c.142.002.283-.014.421-.049.438-.088.775-.441.841-.883.006-.061.006-.122 0-.183v-15.063c.006-.271-.09-.534-.268-.737-.213-.245-.523-.383-.847-.378h-8.9698c-.1151.001-.2299-.013-.3412-.043-.332-.083-.5759-.366-.6093-.707v-.243-9.22c.0112-.306-.0883-.607-.2803-.847-.1998-.247-.4885-.407-.8044-.444l-.0731-.031h-3.4183l-.0854.031c-.5551.065-.9947.499-1.0663 1.054v.304 9.177c.0121.103.0121.208 0 .311-.0932.396-.4463.676-.8531.676h-1.6269-1.2979c-.2533.016-.5016-.076-.6845-.252s-.2838-.42-.2782-.674v-1.018-.932-6.465-.969c.0107-.592-.4057-1.106-.9872-1.218l-.1888-.043h-3.394l-.0854.03c-.5454.062-.982.482-1.0663 1.024-.0107.05-.0271.1-.0487.146zm17.6341 16.227h.2072l2.6323.006c.8005.032 1.4355.686 1.4445 1.487v2.583c-.004.714-.516 1.324-1.219 1.451-.0953.008-.1911.008-.2864 0h-2.5105c-.6669-.006-1.2489-.454-1.4258-1.097-.0381-.133-.0586-.27-.0609-.408v-2.554c-.0055-.72.5091-1.341 1.2186-1.468z" fill="#f79420" fill-rule="evenodd"/><path d="m79.2559 652.042h-.8653v.203l.091.183zm0-26.586-.7851-.363-.0802.173v.19zm.0487 26.732.853-.146-.0018-.01zm.9567.914-.1066.859.0531.006h.0535zm25.0067 0 .014-.865h-.014zm.421-.049-.17-.848-.021.004-.02.005zm.841-.883.856.127.003-.021.002-.02zm0-.183h-.866v.043l.005.043zm0-15.063-.865-.02-.001.01v.01zm-.268-.737-.652.569.002.002zm-.847-.378v.865h.012zm-8.9698 0v-.865h-.009zm-.3412-.043.2217-.836-.0112-.003zm-.6093-.707h-.8653v.043l.0042.042zm0-9.463-.8647-.031-.0006.016v.015zm-.2803-.847.6751-.541-.0018-.002zm-.8044-.444-.3327.798.111.047.1195.014zm-.0731-.031.3328-.798-.1597-.067h-.1731zm-3.4183 0v-.865h-.1499l-.1412.05zm-.0854.031.1011.859.0975-.011.0925-.033zm-1.0663 1.054-.8581-.111-.0072.055v.056zm0 9.481h-.8653v.051l.0059.05zm0 .311.8422.198.0114-.048.0058-.049zm-.8531.676v.865h.001zm-2.9248 0v-.865h-.0262l-.0263.002zm-.9627-.926.865.019.0002-.009v-.01zm0-9.384-.8651-.015-.0002.007v.008zm-.9872-1.218-.1905.844.0131.003.0132.002zm-.1888-.043.1905-.844-.0941-.021h-.0964zm-3.394 0v-.865h-.1499l-.1412.05zm-.0854.03.0979.86.0992-.011.094-.034zm-1.0663 1.024.8463.18.005-.023.0037-.024zm17.7926 16.373.002-.865h-.002zm-.2072 0v-.865h-.0771l-.0759.013zm2.8395.006.035-.865h-.0165-.0164zm1.4445 1.487h.865v-.01zm0 2.583.865.005v-.005zm-1.219 1.451.079.861.037-.003.037-.007zm-.2864 0 .0785-.862-.0391-.004h-.0394zm-2.5105 0-.0078.865h.0078zm-1.4258-1.097.8343-.23-.0026-.009zm-.0609-.408h-.8653v.007l.0001.007zm0-2.554h.8653l-.0001-.006zm-15.5503 8.891v-26.586h-1.7305v26.586zm.0347-.01c-.024-.131-.0663-.258-.1257-.377l-1.5485.773c-.0133-.027-.0228-.055-.0282-.085zm.212.211c-.1067-.013-.1922-.095-.2103-.201l-1.7058.291c.1465.859.8385 1.52 1.703 1.628zm.1799-.006h-.2864v1.73h.2864zm24.7203 0h-24.7203v1.73h24.7203zm.21-.023c-.064.016-.13.024-.196.023l-.027 1.73c.217.003.434-.022.645-.075zm.196-.172c-.012.082-.074.147-.155.163l.339 1.697c.797-.16 1.408-.802 1.528-1.605zm-.005.031v.011l1.722.172c.011-.118.011-.237 0-.355zm-.005-15.149v15.063h1.731v-15.063zm-.052-.166c.035.04.054.092.053.146l1.73.04c.011-.488-.161-.962-.483-1.328zm-.185-.084c.07-.001.137.029.183.081l1.304-1.137c-.381-.436-.933-.683-1.512-.674zm-8.9818 0h8.9698v-1.73h-8.9698zm-.5629-.071c.1866.049.3789.073.5719.071l-.018-1.73c-.0373 0-.0744-.005-.1105-.014zm-1.2487-1.459c.0691.704.5734 1.289 1.2599 1.462l.421-1.679c.0225.006.039.025.0413.048zm-.0042-.328v.243h1.7305v-.243zm0-9.22v9.22h1.7305v-9.22zm-.0902-.305c.0622.077.0944.175.0908.274l1.7293.063c.0188-.514-.1479-1.018-.4698-1.42zm-.2314-.127c.0916.011.1753.057.2332.129l1.3467-1.087c-.3416-.423-.8352-.696-1.3754-.761zm-.3037-.091.0732.03.6655-1.597-.0731-.03zm-3.0855.066h3.4183v-1.73h-3.4183zm.2057-.019.0853-.031-.5821-1.63-.0853.031zm-.4993.35c.0208-.161.1483-.287.3093-.306l-.2021-1.719c-.9493.112-1.7009.855-1.8234 1.803zm.0072.193v-.304h-1.7306v.304zm0 9.177v-9.177h-1.7306v9.177zm-.0059.412c.0199-.171.0199-.342 0-.513l-1.7188.202c.0043.036.0043.073 0 .109zm-1.7115 1.44c.8079 0 1.5092-.557 1.6943-1.343l-1.6844-.396c-.0013.005-.0062.009-.0119.009zm-1.6279 0h1.6269v-1.73h-1.6269zm-1.2979 0h1.2979v-1.73h-1.2979zm-1.2844-.493c.3573.343.8421.522 1.3369.492l-.105-1.727c-.0119 0-.0235-.004-.0321-.012zm-.5434-1.317c-.0109.496.1862.973.5434 1.317l1.1998-1.247c-.0086-.009-.0133-.02-.0131-.032zm-.0002-.999v1.018h1.7305v-1.018zm0-.932v.932h1.7305v-.932zm0-6.465v6.465h1.7305v-6.465zm0-.969v.969h1.7305v-.969zm-.2861-.369c.1686.033.2894.182.2863.354l1.7302.031c.0184-1.013-.6937-1.892-1.688-2.084zm-.2152-.048.1889.043.3811-1.688-.1889-.043zm-3.2034.021h3.394v-1.73h-3.394zm.2057-.02.0853-.03-.5821-1.63-.0853.031zm-.5024.342c.0244-.157.1511-.279.3092-.297l-.1957-1.719c-.9328.106-1.6793.823-1.8235 1.75zm-.1187.377c.0489-.105.0858-.216.11-.33l-1.6926-.36c.0027-.013.0069-.025.0125-.037zm17.0563 14.998h-.2072v1.73h.2072zm2.6344.006-2.6324-.006-.004 1.73 2.6323.006zm2.3074 2.342c-.014-1.261-1.014-2.291-2.2745-2.342l-.0699 1.73c.3404.013.6104.291.6134.632zm0 2.593v-2.583h-1.731v2.583zm-1.931 2.302c1.114-.2 1.925-1.166 1.931-2.297l-1.731-.009c-.001.297-.214.55-.5061.603zm-.5179.01c.1475.014.2959.014.4439 0l-.1575-1.723c-.043.004-.0863.004-.1294 0zm-2.432.004h2.5105v-1.731h-2.5105zm-2.2601-1.733c.2795 1.016 1.1988 1.723 2.2523 1.733l.0157-1.731c-.2804-.002-.5251-.19-.5994-.461zm-.0918-.623c.0037.214.0354.427.0944.632l1.6634-.477c-.0172-.06-.0264-.122-.0275-.184zm-.0001-2.568v2.554h1.7305v-2.554zm1.9309-2.32c-1.1242.202-1.9395 1.185-1.9309 2.327l1.7305-.013c-.0023-.3.2116-.557.5065-.61z" fill="#444c56"/><g clip-path="url(#c)"><rect fill="#fff" height="167" rx="18" width="575" x="106" y="431"/><rect fill="#8bd2e4" height="122.336" rx="8.772" stroke="#353537" stroke-width="2.924" width="124.669" x="297.462" y="453.462"/><g fill="#fff"><rect height="15.0275" rx="2.924" width="104.727" x="307.636" y="469.339"/><rect height="15.0275" rx="2.924" width="104.727" x="307.636" y="494.771"/><rect height="15.0275" rx="2.924" width="104.727" x="307.636" y="545.633"/><rect height="15.0275" rx="2.924" width="104.727" x="307.636" y="520.202"/></g><rect fill="#fdb836" height="15.6" rx="1.7" stroke="#353537" stroke-width="3.4" width="101.6" x="309.7" y="546.7"/><rect fill="#8bd2e4" height="122.336" rx="8.772" stroke="#353537" stroke-width="2.924" width="124.669" x="466.462" y="453.462"/><rect fill="#fff" height="15.0275" rx="2.924" width="104.727" x="476.636" y="469.339"/><rect fill="#fff" height="15.0275" rx="2.924" width="104.727" x="476.636" y="494.771"/><rect fill="#fff" height="15.0275" rx="2.924" width="104.727" x="476.636" y="545.633"/><rect fill="#fff" height="15.0275" rx="2.924" width="104.727" x="476.636" y="520.202"/><path d="m144.72 460.504c0 1.744-.448 3.312-1.344 4.704-.88 1.392-2.072 2.432-3.576 3.12.144.24.368.448.672.624.32.16.648.24.984.24s.664-.056.984-.168c.32-.096.576-.216.768-.36.416-.336.712-.664.888-.984l1.944 2.328c-1.376 1.456-3.096 2.184-5.16 2.184-.96 0-1.904-.264-2.832-.792s-1.64-1.272-2.136-2.232c-2.48 0-4.568-.824-6.264-2.472-1.696-1.664-2.544-3.728-2.544-6.192s.848-4.52 2.544-6.168c1.696-1.664 3.784-2.496 6.264-2.496s4.568.832 6.264 2.496c1.696 1.648 2.544 3.704 2.544 6.168zm-3.816.024c0-1.504-.48-2.784-1.44-3.84s-2.144-1.584-3.552-1.584c-1.392 0-2.568.528-3.528 1.584s-1.44 2.336-1.44 3.84c0 1.488.48 2.76 1.44 3.816.96 1.04 2.136 1.56 3.528 1.56 1.408 0 2.592-.52 3.552-1.56.96-1.056 1.44-2.328 1.44-3.816zm11.452 4.152c.624.768 1.464 1.152 2.52 1.152s1.888-.384 2.496-1.152c.624-.784.936-1.848.936-3.192v-9.264h3.744v9.384c0 2.432-.672 4.304-2.016 5.616-1.344 1.296-3.064 1.944-5.16 1.944s-3.824-.656-5.184-1.968c-1.344-1.312-2.016-3.176-2.016-5.592v-9.384h3.744v9.264c0 1.344.312 2.408.936 3.192zm25.679-12.456v3.336h-8.352v3.456h7.512v3.192h-7.512v3.48h8.616v3.312h-12.36v-16.776zm8.047 12.456c.624.768 1.464 1.152 2.52 1.152s1.888-.384 2.496-1.152c.624-.784.936-1.848.936-3.192v-9.264h3.744v9.384c0 2.432-.672 4.304-2.016 5.616-1.344 1.296-3.064 1.944-5.16 1.944s-3.824-.656-5.184-1.968c-1.344-1.312-2.016-3.176-2.016-5.592v-9.384h3.744v9.264c0 1.344.312 2.408.936 3.192zm25.68-12.456v3.336h-8.352v3.456h7.512v3.192h-7.512v3.48h8.616v3.312h-12.36v-16.776zm9.007 2.904c-.624 0-1.12.152-1.488.456-.352.288-.528.68-.528 1.176 0 .48.216.864.648 1.152.448.288 1.464.632 3.048 1.032 1.6.384 2.84.968 3.72 1.752s1.32 1.928 1.32 3.432-.568 2.728-1.704 3.672c-1.12.928-2.6 1.392-4.44 1.392-2.656 0-5.048-.984-7.176-2.952l2.232-2.736c1.808 1.584 3.48 2.376 5.016 2.376.688 0 1.224-.144 1.608-.432.4-.304.6-.704.6-1.2 0-.512-.208-.912-.624-1.2-.416-.304-1.24-.608-2.472-.912-1.952-.464-3.384-1.064-4.296-1.8-.896-.752-1.344-1.92-1.344-3.504 0-1.6.568-2.832 1.704-3.696 1.152-.864 2.584-1.296 4.296-1.296 1.12 0 2.24.192 3.36.576s2.096.928 2.928 1.632l-1.896 2.736c-1.456-1.104-2.96-1.656-4.512-1.656z" fill="#353537"/><g clip-path="url(#d)"><path d="m637.024 542c14.899 0 26.976-12.078 26.976-26.976 0-14.899-12.077-26.976-26.976-26.976-14.898 0-26.976 12.077-26.976 26.976 0 14.898 12.078 26.976 26.976 26.976z" fill="#f2f2f2"/><g stroke="#424143" stroke-width="2.364"><path d="m649.754 491.236c.517.269 1.011.561 1.505.864"/><path d="m658.039 498.106c.326.404.64.82.943 1.235 7.679 10.77 6.405 25.521-3.008 34.814s-24.179 10.379-34.85 2.563c-10.671-7.817-14.089-22.223-8.067-34 6.021-11.777 19.701-17.442 32.286-13.368.74.247 1.47.516 2.177.819"/><path d="m653.74 493.851c.434.352.86.726 1.279 1.123.371.326.73.674 1.123 1.022"/></g><path d="m648.698 518.6h-2.8v-6h-6.48v6h-5.84l8.92-17.6h-6.88l-8.92 17.6v5.92h12.72v4.48h6.48v-4.48h2.8z" fill="#000"/></g></g><g clip-path="url(#e)"><path d="m637.024 421c14.899 0 26.976-12.078 26.976-26.976 0-14.899-12.077-26.976-26.976-26.976-14.898 0-26.976 12.077-26.976 26.976 0 14.898 12.078 26.976 26.976 26.976z" fill="#f2f2f2"/><g stroke="#424143" stroke-width="2.364"><path d="m649.754 370.236c.517.269 1.011.561 1.505.864"/><path d="m658.039 377.106c.326.404.64.82.943 1.235 7.679 10.77 6.405 25.521-3.008 34.814s-24.179 10.379-34.85 2.563c-10.671-7.817-14.089-22.223-8.067-34 6.021-11.777 19.701-17.442 32.286-13.368.74.247 1.47.516 2.177.819"/><path d="m653.74 372.851c.434.352.86.726 1.279 1.123.371.326.73.674 1.123 1.022"/></g><path d="m641.344 391.36 4.84-6.16v-5.2h-18v6h10.24l-5.08 6.44 2.44 3.64h1.32c2.64 0 3.8 1.4 3.8 3.12s-1.16 3.12-3.8 3.12c-2.44 0-3.64-1.12-4.28-2.96l-5.52 3.2c1.72 4.12 5.56 6 9.8 6 5.4 0 10.2-3.2 10.2-9.36 0-3.88-2.52-6.64-5.96-7.84z" fill="#000"/></g><g clip-path="url(#f)"><rect fill="#fff" height="167" rx="18" width="575" x="106" y="190"/><path d="m140.16 211.224v3.336h-8.352v3.456h7.512v3.192h-7.512v3.48h8.616v3.312h-12.36v-16.776zm13.039 0h4.512l-5.232 8.088 5.664 8.688h-4.56l-3.576-5.52-3.552 5.52h-4.512l5.64-8.592-5.256-8.184h4.488l3.192 4.968zm14.96 13.464c1.84 0 3.344-.728 4.512-2.184l2.4 2.472c-1.904 2.144-4.152 3.216-6.744 3.216-2.576 0-4.704-.816-6.384-2.448-1.664-1.632-2.496-3.688-2.496-6.168 0-2.496.848-4.576 2.544-6.24 1.712-1.664 3.8-2.496 6.264-2.496 2.752 0 5.056 1.048 6.912 3.144l-2.328 2.64c-1.184-1.472-2.656-2.208-4.416-2.208-1.408 0-2.616.464-3.624 1.392-.992.912-1.488 2.152-1.488 3.72 0 1.552.472 2.8 1.416 3.744s2.088 1.416 3.432 1.416zm20.29-13.464h3.744v16.776h-3.744v-6.6h-6.672v6.6h-3.744v-16.776h3.744v7.008h6.672zm19.817 16.776-1.56-3.624h-7.032l-1.56 3.624h-3.984l7.248-16.776h3.624l7.248 16.776zm-5.064-11.784-2.112 4.872h4.2zm22.731-4.992h3.744v16.776h-3.744l-7.992-10.512v10.512h-3.744v-16.776h3.504l8.232 10.8zm18.777 8.232h3.768v5.952c-1.664 1.856-3.968 2.784-6.912 2.784-2.464 0-4.536-.816-6.216-2.448-1.664-1.632-2.496-3.688-2.496-6.168 0-2.496.848-4.576 2.544-6.24 1.712-1.664 3.768-2.496 6.168-2.496 2.416 0 4.512.792 6.288 2.376l-1.944 2.808c-.752-.656-1.448-1.104-2.088-1.344-.624-.256-1.304-.384-2.04-.384-1.424 0-2.624.488-3.6 1.464-.976.96-1.464 2.232-1.464 3.816s.464 2.856 1.392 3.816c.944.944 2.064 1.416 3.36 1.416s2.376-.248 3.24-.744zm19.2-8.232v3.336h-8.352v3.456h7.512v3.192h-7.512v3.48h8.616v3.312h-12.36v-16.776z" fill="#353537"/><path d="m498.99 270.5c0 31.751-25.739 57.49-57.49 57.49s-57.49-25.739-57.49-57.49 25.739-57.49 57.49-57.49 57.49 25.739 57.49 57.49z" fill="#8bd2e4" stroke="#353537" stroke-width="4.02"/><path clip-rule="evenodd" d="m410 258.499v1.913c0 1.584 1.285 2.869 2.87 2.869h43.042v5.739c0 2.565 3.104 3.824 4.899 2.029l9.565-9.565c1.121-1.121 1.121-2.937 0-4.058l-9.565-9.565c-1.802-1.802-4.899-.526-4.899 2.029v5.739h-43.042c-1.585 0-2.87 1.285-2.87 2.87zm61.216 22.956c0-1.585-1.284-2.87-2.869-2.87h-43.043v-5.739c0-2.548-3.092-3.835-4.898-2.029l-9.566 9.565c-1.12 1.121-1.12 2.938 0 4.058l9.566 9.565c1.796 1.797 4.898.534 4.898-2.029v-5.739h43.043c1.585 0 2.869-1.284 2.869-2.869z" fill="#026d87" fill-rule="evenodd"/><g clip-path="url(#g)"><path d="m637.024 301c14.899 0 26.976-12.078 26.976-26.976 0-14.899-12.077-26.976-26.976-26.976-14.898 0-26.976 12.077-26.976 26.976 0 14.898 12.078 26.976 26.976 26.976z" fill="#f2f2f2"/><g stroke="#424143" stroke-width="2.364"><path d="m649.754 250.236c.517.269 1.011.561 1.505.864"/><path d="m658.039 257.106c.326.404.64.82.943 1.235 7.679 10.77 6.405 25.521-3.008 34.814s-24.179 10.379-34.85 2.563c-10.671-7.817-14.089-22.223-8.067-34 6.021-11.777 19.701-17.442 32.286-13.368.74.247 1.47.516 2.177.819"/><path d="m653.74 252.851c.434.352.86.726 1.279 1.123.371.326.73.674 1.123 1.022"/></g><path d="m627.716 288h19.04v-6.16h-9.4l4.64-4.68c2.56-2.56 4.36-5.44 4.36-8.8 0-5.64-4.48-8.92-9.48-8.92-3.88 0-7.64 1.96-9.44 6.12l5.4 3.16c.76-1.76 2.16-3.04 4.12-3.04 1.88 0 3 1.2 3 2.96 0 1.64-1.2 3.28-2.84 4.96l-9.4 9.76z" fill="#000"/></g></g><g fill="#353537"><path d="m87.152 161h-9.486v-21.669h8.432c1.4673 0 2.728.176 3.782.527 1.0747.351 1.8807.827 2.418 1.426.9713 1.116 1.457 2.377 1.457 3.782 0 1.695-.5477 2.955-1.643 3.782-.372.289-.6303.475-.775.558-.1447.062-.403.176-.775.341 1.3433.289 2.4077.899 3.193 1.829.806.909 1.209 2.046 1.209 3.41 0 1.509-.5167 2.842-1.55 3.999-1.1987 1.343-3.286 2.015-6.262 2.015zm-4.65-12.896h2.294c1.3433 0 2.3353-.145 2.976-.434.6613-.289.992-.909.992-1.86 0-.971-.2997-1.612-.899-1.922s-1.612-.465-3.038-.465h-2.325zm0 8.804h3.317c1.3847 0 2.418-.165 3.1-.496.7027-.351 1.054-1.023 1.054-2.015 0-1.013-.372-1.674-1.116-1.984-.7233-.331-1.891-.496-3.503-.496h-2.852zm34.114-10.385c0 3.472-1.374 5.714-4.123 6.727l5.487 7.75h-5.952l-4.805-6.913h-3.348v6.913h-4.836v-21.669h8.215c3.369 0 5.766.568 7.192 1.705 1.447 1.137 2.17 2.966 2.17 5.487zm-9.207 3.379c1.653 0 2.78-.269 3.379-.806s.899-1.385.899-2.542c0-1.178-.31-1.984-.93-2.418s-1.705-.651-3.255-.651h-3.627v6.417zm30.527.155c0-1.943-.62-3.596-1.86-4.96s-2.77-2.046-4.588-2.046c-1.798 0-3.317.682-4.557 2.046s-1.86 3.017-1.86 4.96c0 1.922.62 3.565 1.86 4.929 1.24 1.343 2.759 2.015 4.557 2.015 1.818 0 3.348-.672 4.588-2.015 1.24-1.364 1.86-3.007 1.86-4.929zm1.643 7.967c-2.191 2.129-4.888 3.193-8.091 3.193-3.204 0-5.901-1.064-8.091-3.193-2.191-2.149-3.286-4.815-3.286-7.998s1.095-5.838 3.286-7.967c2.19-2.149 4.887-3.224 8.091-3.224 3.203 0 5.9 1.075 8.091 3.224 2.19 2.129 3.286 4.784 3.286 7.967s-1.096 5.849-3.286 7.998zm7.383-18.693h4.836v8.897l8.184-8.897h5.983l-8.618 9.579c.744 1.033 2.118 2.966 4.123 5.797 2.005 2.811 3.503 4.908 4.495 6.293h-5.642l-6.355-8.556-2.17 2.418v6.138h-4.836zm37.633 0v4.309h-10.788v4.464h9.703v4.123h-9.703v4.495h11.129v4.278h-15.965v-21.669zm22.236 7.192c0 3.472-1.374 5.714-4.123 6.727l5.487 7.75h-5.952l-4.805-6.913h-3.348v6.913h-4.836v-21.669h8.215c3.369 0 5.766.568 7.192 1.705 1.447 1.137 2.17 2.966 2.17 5.487zm-9.207 3.379c1.653 0 2.78-.269 3.379-.806s.899-1.385.899-2.542c0-1.178-.31-1.984-.93-2.418s-1.705-.651-3.255-.651h-3.627v6.417z"/><path d="m306.408 391h-7.344v-16.776h6.528c1.136 0 2.112.136 2.928.408.832.272 1.456.64 1.872 1.104.752.864 1.128 1.84 1.128 2.928 0 1.312-.424 2.288-1.272 2.928-.288.224-.488.368-.6.432-.112.048-.312.136-.6.264 1.04.224 1.864.696 2.472 1.416.624.704.936 1.584.936 2.64 0 1.168-.4 2.2-1.2 3.096-.928 1.04-2.544 1.56-4.848 1.56zm-3.6-9.984h1.776c1.04 0 1.808-.112 2.304-.336.512-.224.768-.704.768-1.44 0-.752-.232-1.248-.696-1.488s-1.248-.36-2.352-.36h-1.8zm0 6.816h2.568c1.072 0 1.872-.128 2.4-.384.544-.272.816-.792.816-1.56 0-.784-.288-1.296-.864-1.536-.56-.256-1.464-.384-2.712-.384h-2.208zm16.043 3.168h-3.6v-12.912h3.6zm-3.312-14.544c-.4-.416-.6-.92-.6-1.512s.2-1.088.6-1.488c.416-.416.92-.624 1.512-.624s1.088.208 1.488.624c.416.4.624.896.624 1.488s-.208 1.096-.624 1.512c-.4.4-.896.6-1.488.6s-1.096-.2-1.512-.6zm10.32 7.344v7.2h-3.6v-12.912h3.6v1.44c1.088-1.104 2.312-1.656 3.672-1.656s2.496.48 3.408 1.44c.928.96 1.392 2.24 1.392 3.84v7.848h-3.6v-7.296c0-1.984-.728-2.976-2.184-2.976-.72 0-1.352.264-1.896.792-.528.512-.792 1.272-.792 2.28zm16.888 7.392c-1.52 0-2.88-.648-4.08-1.944s-1.8-2.904-1.8-4.824.584-3.488 1.752-4.704c1.168-1.232 2.536-1.848 4.104-1.848s2.848.552 3.84 1.656v-6.336h3.6v17.808h-3.6v-1.704c-1.008 1.264-2.28 1.896-3.816 1.896zm-2.256-6.624c0 1.04.312 1.896.936 2.568.624.656 1.352.984 2.184.984s1.536-.328 2.112-.984c.592-.672.888-1.528.888-2.568 0-1.056-.296-1.928-.888-2.616-.576-.704-1.288-1.056-2.136-1.056s-1.576.352-2.184 1.056-.912 1.576-.912 2.616zm16.68 6.432h-3.6v-12.912h3.6zm-3.312-14.544c-.4-.416-.6-.92-.6-1.512s.2-1.088.6-1.488c.416-.416.92-.624 1.512-.624s1.088.208 1.488.624c.416.4.624.896.624 1.488s-.208 1.096-.624 1.512c-.4.4-.896.6-1.488.6s-1.096-.2-1.512-.6zm10.32 7.344v7.2h-3.6v-12.912h3.6v1.44c1.088-1.104 2.312-1.656 3.672-1.656s2.496.48 3.408 1.44c.928.96 1.392 2.24 1.392 3.84v7.848h-3.6v-7.296c0-1.984-.728-2.976-2.184-2.976-.72 0-1.352.264-1.896.792-.528.512-.792 1.272-.792 2.28zm20.776.48c0-1.04-.288-1.856-.864-2.448s-1.288-.888-2.136-.888-1.584.296-2.208.888c-.608.592-.912 1.4-.912 2.424s.296 1.856.888 2.496c.608.624 1.344.936 2.208.936s1.584-.312 2.16-.936.864-1.448.864-2.472zm.504 4.536c-1.136 1.264-2.552 1.896-4.248 1.896-1.68 0-3.104-.568-4.272-1.704-1.152-1.152-1.728-2.68-1.728-4.584 0-1.92.592-3.488 1.776-4.704 1.2-1.232 2.568-1.848 4.104-1.848s2.808.632 3.816 1.896v-1.704h3.6v11.256c0 1.152-.2 2.176-.6 3.072s-.936 1.6-1.608 2.112c-1.328 1.056-2.896 1.584-4.704 1.584-.96 0-1.944-.16-2.952-.48-.992-.304-1.864-.744-2.616-1.32l1.392-2.712c1.184.896 2.432 1.344 3.744 1.344 1.328 0 2.376-.328 3.144-.984s1.152-1.696 1.152-3.12z"/><path d="m508.408 391h-7.344v-16.776h6.528c1.136 0 2.112.136 2.928.408.832.272 1.456.64 1.872 1.104.752.864 1.128 1.84 1.128 2.928 0 1.312-.424 2.288-1.272 2.928-.288.224-.488.368-.6.432-.112.048-.312.136-.6.264 1.04.224 1.864.696 2.472 1.416.624.704.936 1.584.936 2.64 0 1.168-.4 2.2-1.2 3.096-.928 1.04-2.544 1.56-4.848 1.56zm-3.6-9.984h1.776c1.04 0 1.808-.112 2.304-.336.512-.224.768-.704.768-1.44 0-.752-.232-1.248-.696-1.488s-1.248-.36-2.352-.36h-1.8zm0 6.816h2.568c1.072 0 1.872-.128 2.4-.384.544-.272.816-.792.816-1.56 0-.784-.288-1.296-.864-1.536-.56-.256-1.464-.384-2.712-.384h-2.208zm16.043 3.168h-3.6v-12.912h3.6zm-3.312-14.544c-.4-.416-.6-.92-.6-1.512s.2-1.088.6-1.488c.416-.416.92-.624 1.512-.624s1.088.208 1.488.624c.416.4.624.896.624 1.488s-.208 1.096-.624 1.512c-.4.4-.896.6-1.488.6s-1.096-.2-1.512-.6zm10.32 7.344v7.2h-3.6v-12.912h3.6v1.44c1.088-1.104 2.312-1.656 3.672-1.656s2.496.48 3.408 1.44c.928.96 1.392 2.24 1.392 3.84v7.848h-3.6v-7.296c0-1.984-.728-2.976-2.184-2.976-.72 0-1.352.264-1.896.792-.528.512-.792 1.272-.792 2.28zm16.888 7.392c-1.52 0-2.88-.648-4.08-1.944s-1.8-2.904-1.8-4.824.584-3.488 1.752-4.704c1.168-1.232 2.536-1.848 4.104-1.848s2.848.552 3.84 1.656v-6.336h3.6v17.808h-3.6v-1.704c-1.008 1.264-2.28 1.896-3.816 1.896zm-2.256-6.624c0 1.04.312 1.896.936 2.568.624.656 1.352.984 2.184.984s1.536-.328 2.112-.984c.592-.672.888-1.528.888-2.568 0-1.056-.296-1.928-.888-2.616-.576-.704-1.288-1.056-2.136-1.056s-1.576.352-2.184 1.056-.912 1.576-.912 2.616zm16.68 6.432h-3.6v-12.912h3.6zm-3.312-14.544c-.4-.416-.6-.92-.6-1.512s.2-1.088.6-1.488c.416-.416.92-.624 1.512-.624s1.088.208 1.488.624c.416.4.624.896.624 1.488s-.208 1.096-.624 1.512c-.4.4-.896.6-1.488.6s-1.096-.2-1.512-.6zm10.32 7.344v7.2h-3.6v-12.912h3.6v1.44c1.088-1.104 2.312-1.656 3.672-1.656s2.496.48 3.408 1.44c.928.96 1.392 2.24 1.392 3.84v7.848h-3.6v-7.296c0-1.984-.728-2.976-2.184-2.976-.72 0-1.352.264-1.896.792-.528.512-.792 1.272-.792 2.28zm20.776.48c0-1.04-.288-1.856-.864-2.448s-1.288-.888-2.136-.888-1.584.296-2.208.888c-.608.592-.912 1.4-.912 2.424s.296 1.856.888 2.496c.608.624 1.344.936 2.208.936s1.584-.312 2.16-.936.864-1.448.864-2.472zm.504 4.536c-1.136 1.264-2.552 1.896-4.248 1.896-1.68 0-3.104-.568-4.272-1.704-1.152-1.152-1.728-2.68-1.728-4.584 0-1.92.592-3.488 1.776-4.704 1.2-1.232 2.568-1.848 4.104-1.848s2.808.632 3.816 1.896v-1.704h3.6v11.256c0 1.152-.2 2.176-.6 3.072s-.936 1.6-1.608 2.112c-1.328 1.056-2.896 1.584-4.704 1.584-.96 0-1.944-.16-2.952-.48-.992-.304-1.864-.744-2.616-1.32l1.392-2.712c1.184.896 2.432 1.344 3.744 1.344 1.328 0 2.376-.328 3.144-.984s1.152-1.696 1.152-3.12z"/></g><path d="m405.504 422.084 21.522-80.323c.639-2.384-.737-4.865-3.154-5.513l-3.186-.854c-2.416-.647-4.849.814-5.488 3.198l-21.522 80.322-5.775-10.766-.003-.006c-1.198-2.218-3.99-3.012-6.175-1.729l-2.802 1.644c-.002.001-.003.002-.005.003-2.142 1.245-2.866 3.994-1.648 6.138l14.082 24.793c.001.002.002.003.003.005 1.225 2.179 3.983 2.905 6.128 1.646h.001l24.599-14.444c2.142-1.245 2.865-3.994 1.648-6.138l-1.605-2.825c-.001-.002-.002-.003-.003-.005-1.248-2.218-4.07-2.928-6.221-1.59-.001 0-.002.001-.003.001z" fill="#b3b8bf" stroke="#fff" stroke-width="4"/><path d="m489.671 419.917-21.522-80.323c-.639-2.384-3.071-3.845-5.488-3.197l-3.186.854c-2.417.647-3.793 3.129-3.154 5.513l21.522 80.322-10.384-6.437-.005-.003c-2.147-1.321-4.962-.613-6.213 1.59l-1.605 2.825c-.001.001-.002.003-.003.005-1.232 2.149-.484 4.892 1.642 6.14l24.592 14.43c.002.001.003.002.005.003 2.151 1.274 4.902.524 6.13-1.639h.001l14.082-24.809c1.232-2.149.484-4.891-1.642-6.139l-2.802-1.644c-.002-.001-.004-.002-.006-.003-2.19-1.297-4.988-.5-6.182 1.734-.001.001-.001.001-.002.002z" fill="#b3b8bf" stroke="#fff" stroke-width="4"/></g><path d="m365.118 673.665v-83.156c0-2.468-1.972-4.509-4.474-4.509h-3.298c-2.502 0-4.474 2.041-4.474 4.509v83.156l-8.364-8.905-.005-.005c-1.731-1.832-4.634-1.876-6.412-.072l-2.281 2.313c-.001.001-.003.003-.004.004-1.747 1.757-1.735 4.6-.004 6.356l20.019 20.304c.002.001.003.002.005.004 1.748 1.787 4.599 1.775 6.345.003h.001l20.022-20.319c1.747-1.757 1.735-4.599.004-6.355-.001 0-.001 0-.001 0l-2.28-2.313c-.002-.002-.003-.003-.005-.004-1.78-1.82-4.689-1.775-6.421.074 0 .001-.001.002-.002.002z" fill="#b3b8bf" stroke="#fff" stroke-width="4"/><path d="m448.118 178.665v-83.1561c0-2.4682-1.972-4.5089-4.474-4.5089h-3.298c-2.502 0-4.474 2.0407-4.474 4.5089v83.1561l-8.364-8.905-.005-.005c-1.731-1.832-4.634-1.876-6.412-.072l-2.281 2.313c-.001.001-.003.003-.004.004-1.747 1.757-1.735 4.6-.004 6.356l20.019 20.304c.002.001.003.002.005.004 1.748 1.787 4.599 1.775 6.345.003h.001l20.022-20.319c1.747-1.757 1.735-4.599.004-6.355-.001 0-.001 0-.001 0l-2.28-2.313c-.002-.002-.003-.003-.005-.004-1.78-1.82-4.689-1.775-6.421.074 0 .001-.001.002-.002.002z" fill="#b3b8bf" stroke="#fff" stroke-width="4"/><g clip-path="url(#h)"><path d="m637.024 81.9996c14.899 0 26.976-12.0775 26.976-26.976 0-14.8984-12.077-26.976-26.976-26.976-14.898 0-26.976 12.0776-26.976 26.976 0 14.8985 12.078 26.976 26.976 26.976z" fill="#f2f2f2"/><g stroke="#424143" stroke-width="2.364"><path d="m649.754 31.2358c.517.2694 1.011.5613 1.505.8644"/><path d="m658.039 38.1061c.326.4041.64.8195.943 1.2348 7.679 10.7698 6.405 25.5213-3.008 34.8144-9.413 9.293-24.179 10.3787-34.85 2.5624-10.671-7.8164-14.089-22.2229-8.067-34 6.021-11.7772 19.701-17.4414 32.286-13.3679.74.247 1.47.5164 2.177.8195"/><path d="m653.74 33.8514c.434.3518.86.726 1.279 1.1226.371.3256.73.6736 1.123 1.0216"/></g><path d="m637.154 41-7.32 2.64 1.56 5.48 4.96-1.36v21.24h6.4v-28z" fill="#000"/></g><path d="m393.755 27.66h-.34l.34 54.6396 47.744-26.6454z" fill="#ffd687"/><path d="m489.593 28.1505-48.093 27.5037 47.056 27.0981.056-.5093z" fill="#ffd687"/><path d="m395.141 82.6014.264 1.047h92.585l-46.491-27.9942-27.258 15.5911z" fill="#fdb836"/><path d="m441.5 55.6542 46.226 27.1076" stroke="#353537" stroke-width="2.73528"/><path d="m395.141 82.6014 46.424-26.834" stroke="#353537" stroke-width="2.73528"/><path d="m489.593 28.1505v-.4905h-95.838l47.744 32.5499z" fill="#fdb836"/><path d="m457.232 83.2051h-59.61c-1.128.0026-2.21-.447-3.004-1.2481-.794-.8012-1.234-1.8872-1.222-3.0152l.151-48.8672c0-1.4997 1.424-3.6502 3-3.6313h89.811c1.547 0 3.028 2.1694 3.018 3.6879l-.122 49.2539c-.003 1.1274-.454 2.2074-1.253 3.0019-.8.7944-1.883 1.2381-3.011 1.2331h-5.781" stroke="#353537" stroke-width="2.73528"/><path d="m394.339 28.1505 47.16 32.0594 47.594-31.7293" stroke="#353537" stroke-width="2.73528"/><path d="m63.323 45.331c3.3273 0 5.7453.651 7.254 1.953 1.5293 1.2813 2.294 3.2653 2.294 5.952 0 2.666-.7853 4.619-2.356 5.859-1.55 1.24-3.9267 1.86-7.13 1.86h-2.883v6.045h-4.836v-21.669zm.434 11.439c1.612 0 2.7073-.3203 3.286-.961.5787-.6613.868-1.612.868-2.852 0-1.2607-.3823-2.1493-1.147-2.666-.744-.5373-1.9117-.806-3.503-.806h-2.759v7.285zm30.4655-4.247c0 3.472-1.3743 5.7143-4.123 6.727l5.487 7.75h-5.952l-4.805-6.913h-3.348v6.913h-4.836v-21.669h8.215c3.3687 0 5.766.5683 7.192 1.705 1.4467 1.1367 2.17 2.9657 2.17 5.487zm-9.207 3.379c1.6533 0 2.7797-.2687 3.379-.806s.899-1.3847.899-2.542c0-1.178-.31-1.984-.93-2.418s-1.705-.651-3.255-.651h-3.627v6.417zm30.5265.155c0-1.9427-.62-3.596-1.86-4.96s-2.769-2.046-4.588-2.046c-1.798 0-3.317.682-4.557 2.046s-1.86 3.0173-1.86 4.96c0 1.922.62 3.565 1.86 4.929 1.24 1.3433 2.759 2.015 4.557 2.015 1.819 0 3.348-.6717 4.588-2.015 1.24-1.364 1.86-3.007 1.86-4.929zm1.643 7.967c-2.191 2.1287-4.888 3.193-8.091 3.193s-5.9-1.0643-8.091-3.193c-2.1907-2.1493-3.286-4.8153-3.286-7.998s1.0953-5.8383 3.286-7.967c2.191-2.1493 4.888-3.224 8.091-3.224s5.9 1.0747 8.091 3.224c2.191 2.1287 3.286 4.7843 3.286 7.967s-1.095 5.8487-3.286 7.998zm15.04-18.693c3.865 0 6.831.9507 8.897 2.852 2.067 1.8807 3.1 4.5053 3.1 7.874s-1.012 6.0347-3.038 7.998c-2.004 1.9633-5.073 2.945-9.207 2.945h-7.409v-21.669zm.248 17.391c2.212 0 3.906-.558 5.084-1.674 1.199-1.116 1.798-2.7383 1.798-4.867s-.599-3.7613-1.798-4.898c-1.178-1.1573-2.996-1.736-5.456-1.736h-2.697v13.175zm21.656-1.302c.806.992 1.891 1.488 3.255 1.488s2.438-.496 3.224-1.488c.806-1.0127 1.209-2.387 1.209-4.123v-11.966h4.836v12.121c0 3.1413-.868 5.5593-2.604 7.254-1.736 1.674-3.958 2.511-6.665 2.511-2.708 0-4.94-.8473-6.696-2.542-1.736-1.6947-2.604-4.1023-2.604-7.223v-12.121h4.836v11.966c0 1.736.403 3.1103 1.209 4.123zm27.496 1.302c2.376 0 4.319-.9403 5.828-2.821l3.1 3.193c-2.46 2.7693-5.363 4.154-8.711 4.154-3.328 0-6.076-1.054-8.246-3.162-2.15-2.108-3.224-4.7637-3.224-7.967 0-3.224 1.095-5.9107 3.286-8.06 2.211-2.1493 4.908-3.224 8.091-3.224 3.554 0 6.53 1.3537 8.928 4.061l-3.007 3.41c-1.53-1.9013-3.431-2.852-5.704-2.852-1.819 0-3.379.5993-4.681 1.798-1.282 1.178-1.922 2.7797-1.922 4.805 0 2.0047.609 3.6167 1.829 4.836 1.219 1.2193 2.697 1.829 4.433 1.829zm28.378-17.391v4.309h-10.788v4.464h9.703v4.123h-9.703v4.495h11.129v4.278h-15.965v-21.669zm22.236 7.192c0 3.472-1.374 5.7143-4.123 6.727l5.487 7.75h-5.952l-4.805-6.913h-3.348v6.913h-4.836v-21.669h8.215c3.369 0 5.766.5683 7.192 1.705 1.447 1.1367 2.17 2.9657 2.17 5.487zm-9.207 3.379c1.653 0 2.78-.2687 3.379-.806s.899-1.3847.899-2.542c0-1.178-.31-1.984-.93-2.418s-1.705-.651-3.255-.651h-3.627v6.417z" fill="#353537"/></svg>